<?xml version="1.0" encoding="utf-8"?>
<!-- Generator: Adobe Illustrator 19.1.0, SVG Export Plug-In . SVG Version: 6.00 Build 0)  -->
<svg version="1.1" id="Layer_1" xmlns="http://www.w3.org/2000/svg" xmlns:xlink="http://www.w3.org/1999/xlink" x="0px" y="0px"
	 viewBox="-129 314.5 353 164.5" style="enable-background:new -129 314.5 353 164.5;" xml:space="preserve">
<style type="text/css">
	.st0{display:none;}
	.st1{display:inline;fill:#4C4C4C;}
	.st2{fill:#FFFFFF;}
</style>
<g class="st0">
	<path class="st1" d="M-26.9,396.7l0.8,0.8v1.9c-0.6,0-0.9,0.2-1.1,0.8c-1.2,0.7-2.9,1.6-5.1,2.8c-1.7,0.3-3.8,0.8-6.3,1.5
		c-2.8,0.8-4.2,1.1-4.3,1.1l-50.5,8.9c0,0.1,0.1,0.2,0.2,0.4c0.9-0.1,1.5,0.1,2,0.5h-5.2l-1.8,0.9c0-0.1-0.1-0.2-0.2-0.3
		c-0.1-0.1-0.3,0-0.5,0.3l-18.6,3.4c-2.5-0.5-3.7-0.7-3.8-0.8c-1.5-0.3-2.4-0.9-2.8-1.8h-2c0,0-2.4-2.9-2.4-4.8
		c-0.3-0.8-0.4-2-0.4-3.8l3.6-28.9v-3.4l2.6-20.8c0,0,0.6-7.9,0.4-8.4c0.2-3.8,0.8-8.9,1.6-15.2c0.1-1,0.6-4.2,1.5-9.3
		c1-1.2,2.6-3,4.7-5.4c1.9-0.6,2.8-0.9,2.6-0.9c0.9,0,1.8,0.3,2.6,1c1.2,1,2,1.7,2.4,1.8c0.1,0.6,0.5,1.1,1,1.8
		c0.6,1.8,0.9,3,0.9,3.6c0.8,0.9,1.5,1.4,2,1.7l-1.7,20.7v5.1l-4.3,46c0,0,5.6-0.2,7.8-0.3l54.8-8l12.3,0.1c1.7,0.2,5.7-0.9,7.2,2.1
		c-0.1-0.1-0.2,0-0.6,0.8c0.3,0.3,0.8,0.6,1.3,0.4c0,0.1,0.2,0.9,0.6,2.1C-25.9,395.4-26.4,395.9-26.9,396.7z"/>
	<path class="st1" d="M45.4,398.3c-0.1,0.3-0.3,1.1-0.7,2.3c-1.4,1.7-3.4,4-6,7.1c-4.1,2.6-7.9,5.1-11.5,7.3
		c-8.3,2.8-14.6,4.3-19,4.3H4.5c-0.3,0-0.8-0.1-1.4-0.4c-0.8,0.1-3.8-0.7-9-2.1c-2-1.2-4.9-3.4-8.5-6.5c-0.6-1-1.5-2.6-2.7-4.7
		c-1.2-4.4-1.8-7.8-1.8-10.1l0.6-5.2V382c0-0.1,0.3-1.4,1-3.6c0.8-2.4,1.2-3.9,1.3-4.6c0.8-1.9,3.6-4.5,8.4-7.6
		c0.8-0.2,2.1-0.6,3.9-1c0.4-0.3,2.1-0.8,2.5-0.8c0,0,1-0.3,3.1-1c2.1-0.7,3.9-1,5.5-1h10.6c1.2,0,2.5,0.2,4,0.8
		c2.5-0.1,7.5,2.2,15.3,7.2v1.1c1.2,1.1,2.9,2.2,4.9,3.5c0.8,0.8,2.4,3.8,4.7,9c0.4,2.6,0.7,5.1,0.7,7.3
		C47.8,394,47,396.4,45.4,398.3z M35.2,386.1c-3-4.8-5.7-7.2-8.2-7.2c-0.1,0-0.7,0.3-0.8,0.3h-0.7c-0.8-1.2-2.7-1.8-5.8-1.7
		l-6.1,0.2l-13.5,2.6l-0.7,0.9v2c0,0.3,0,2.2-0.6,2.8c0.3,0.8,0.6,1.2,0.6,1.3c-0.7,0.6-1.2,0.9-1.7,1.1c0,0.1-0.6,1-1.6,2.7
		c-1,1.8-1.5,3.9-1.2,4.7c1.1,1.4,2.9,2.5,5.6,3.6c2.6,1,4.7,1.6,6.6,1.6c4.3-0.8,6.9-1.2,7.6-1.2l8.9-3.5c4.4-1.8,7.3-3.4,8.8-4.7
		c1.8-1.6,2.7-3,2.7-4.2L35.2,386.1L35.2,386.1z"/>
	<path class="st1" d="M116,400.4c0.1,1.1,0.1,2.6,0,4.3c-0.7,1.2-1.9,2.2-3.6,3.1c-2.6,1.4-4.2,2.2-4.5,2.6c0,0.7-0.4,1.3-1.4,1.8
		c-2.4,1.2-6,2.2-10.9,3.1c-2,1.2-3.9,1.8-5.6,1.8c-0.6,0-3.5,0.9-5.2,1c-1.2,0.1-2.5,0.2-3.7,0.4l-6.4-0.9c-0.1,0-1.6,0.3-1.7,0.3
		l-5.2-0.9c-0.9,0-2.1-0.4-3.9-1.1c-2-0.9-3.3-1.3-3.6-1.5c-3.9-4.4-6-8.4-6-12.1c0-1.7,0.6-4.3,1.7-7.5c1.1-3.4,2.1-5.3,2.9-6
		c6-6.2,15.3-12,28.1-17.8c0.9-0.3,2.4-1.1,4.5-2c0.2,0,2.1-0.6,6-1.8c2.8-0.9,5.2-1.3,7.1-1.3c0.1,0,0.4,0,1.2,0.1
		c0.8,0.1,1.2,0.1,1.6,0.1c0.6,0,1-0.1,1.5-0.2l2.6,7.4c-0.6,1.2-1.5,2.4-2.5,3.5c0.1,0.7-5.4,3.4-15.5,8c-0.3,0.2-1.1,0.9-2.4,2.1
		c-2.2,0.8-5.6,1.9-10,3.7c-3.3,1.4-5.7,3.7-7.3,6.9c0.1,0.1,0.2,0.3,0.2,0.6c2.1,1.5,5.3,2.1,9.2,2.1l25.4-2.8l6.7,1.7L116,400.4z"
		/>
	<path class="st1" d="M186.7,411.2c0,0-4,0.4-5.1-0.2c-1,0.2-3-1-6.3-3.6c-0.7-1.4-2.4-3.9-4.9-7.5l-14.5,10.9
		c0,0.1,0.1,0.2,0.2,0.5c0.2,0.2,0.3,0.3,0.3,0.5c-0.3,0.6-1,1.1-2.1,1.7c-0.9,0.4-1.7,0.9-2.7,1.4c-8.2,2.5-12.3,3.8-12,3.8
		c-5.6,0-10.1-2.3-13.5-6.6c-1.6-4.3-2.4-7.4-2.4-9.3c0-1.2,1.5-5.3,4.4-11.9c2.6-2.8,4.4-4.2,5.6-4.3c0.3-0.3,3-2.4,8.1-5.7
		c2.4-1,6.1-2.6,11.4-4.8c5.6-1.3,8.2-2,7.8-2c0.3,0,5.7,0.4,6.3,0.3c2.2,1,3.3,2,3.3,3.3c0,0.1,1.2,1.8,1.7,2.8
		c0.6,1.2,0.9,1.9,1,2.2c0.3-0.1,0.7-0.1,1-0.1c1.7,0,3.3,0.7,4.7,2c2.4,3.7,4.5,7.2,6.4,10.6c2.6,4.4,4.4,8.2,5.4,11.4
		C189.7,407.5,188.3,409.1,186.7,411.2z M160.8,389.5c-1.1,0-3.4,0.8-6.9,2.1c-2,0.8-4,1.6-6.2,2.5c-2.2,1.3-4.7,3.3-7.4,5.8
		l-0.2,0.7l3.1,0.3c7.5-1.9,13.5-5.1,17.9-9.4c0.2-0.2,1.1-0.9,2.6-2L160.8,389.5L160.8,389.5z"/>
	<path class="st1" d="M224,332.9l-9.9,87.1c-1.2,0-2.5,0.2-3.9,0.9c-0.4,0-1.9-0.4-1.9-0.4c-0.4,0.1-0.9,0.1-1.4,0.1
		c-0.1-0.1-3.6-2-4.2-1.4c-0.2-0.7-0.6-1.6-1.1-2.6c-0.7-4.9-1-8-1-9.1l4.6-39.7c1.6-13,3-26.8,4.5-41.4c0.3-1.4,0.9-3.5,1.7-6.3
		c0.7-2.6,1.7-4.5,2.8-5.6l2.4,0.2c1,1,2,1.7,2.9,2c0.2,0.4,1.1,1.7,2.7,3.7c1.2,3.5,1.8,5.6,1.8,6.5L224,332.9L224,332.9z"/>
</g>
<g class="st0">
	<path class="st1" d="M-27.7,469.8c0.2,0.4,0.4,0.9,0.6,1.3c0.2-0.5,0.4-0.9,0.6-1.3c0.2-0.4,0.4-0.9,0.6-1.3l5.8-11.5
		c0.1-0.2,0.2-0.4,0.3-0.5c0.1-0.1,0.2-0.2,0.4-0.2c0.1-0.1,0.3-0.1,0.5-0.1c0.2,0,0.4,0,0.6,0h4V479H-19v-13.1c0-0.6,0-1.3,0.1-2.1
		l-6,11.7c-0.2,0.4-0.4,0.6-0.8,0.8c-0.3,0.2-0.7,0.3-1.1,0.3h-0.7c-0.4,0-0.8-0.1-1.1-0.3c-0.3-0.2-0.6-0.5-0.8-0.8l-6.1-11.7
		c0,0.4,0.1,0.7,0.1,1.1c0,0.4,0,0.7,0,1V479h-4.6v-22.7h4c0.2,0,0.4,0,0.6,0c0.2,0,0.3,0,0.5,0.1c0.1,0.1,0.3,0.1,0.4,0.2
		c0.1,0.1,0.2,0.3,0.3,0.5l5.9,11.5C-28.1,469-27.9,469.4-27.7,469.8z"/>
	<path class="st1" d="M19.6,479h-4.1c-0.5,0-0.8-0.1-1.1-0.3c-0.3-0.2-0.5-0.5-0.6-0.8l-1.3-4H3.8l-1.3,4c-0.1,0.3-0.3,0.6-0.6,0.8
		c-0.3,0.2-0.7,0.4-1.1,0.4h-4.1l8.8-22.7h5.4L19.6,479z M5,470.3h6.2l-2.1-6.2c-0.1-0.4-0.3-0.9-0.5-1.4c-0.2-0.5-0.4-1.1-0.5-1.7
		c-0.2,0.6-0.3,1.2-0.5,1.8c-0.2,0.5-0.3,1-0.5,1.4L5,470.3z"/>
	<path class="st1" d="M35.9,470.6v8.4h-5.3v-22.7H38c1.6,0,3,0.2,4.2,0.5c1.2,0.3,2.1,0.8,2.8,1.4c0.7,0.6,1.3,1.3,1.6,2.1
		c0.3,0.8,0.5,1.7,0.5,2.7c0,0.7-0.1,1.4-0.3,2.1c-0.2,0.7-0.5,1.3-0.9,1.8c-0.4,0.6-0.9,1.1-1.4,1.5s-1.2,0.8-2,1.1
		c0.4,0.2,0.7,0.4,1,0.7c0.3,0.3,0.6,0.6,0.8,1l4.8,7.9h-4.8c-0.9,0-1.5-0.3-1.9-1l-3.8-6.6c-0.2-0.3-0.4-0.5-0.6-0.6
		c-0.2-0.1-0.5-0.2-0.9-0.2L35.9,470.6L35.9,470.6z M35.9,467H38c0.7,0,1.3-0.1,1.8-0.3c0.5-0.2,0.9-0.4,1.2-0.8
		c0.3-0.3,0.6-0.7,0.7-1.1c0.1-0.4,0.2-0.9,0.2-1.4c0-1-0.3-1.8-1-2.3c-0.7-0.6-1.7-0.8-3-0.8h-2.1V467z"/>
	<path class="st1" d="M65.6,465.5h0.8c0.8,0,1.3-0.2,1.7-0.7l5.1-7.4c0.3-0.4,0.6-0.7,1-0.8c0.4-0.1,0.8-0.2,1.3-0.2h4.6l-6.7,9.2
		c-0.2,0.3-0.5,0.6-0.7,0.8c-0.3,0.2-0.5,0.4-0.8,0.5c0.4,0.1,0.8,0.3,1.1,0.6c0.3,0.3,0.6,0.6,0.9,1l6.9,10.5h-4.7
		c-0.3,0-0.6,0-0.8-0.1c-0.2,0-0.4-0.1-0.6-0.2c-0.2-0.1-0.3-0.2-0.4-0.3c-0.1-0.1-0.2-0.3-0.3-0.4l-5.1-7.9
		c-0.2-0.3-0.4-0.5-0.7-0.6c-0.3-0.1-0.7-0.2-1.2-0.2h-1.3v9.7h-5.3v-22.7h5.3L65.6,465.5L65.6,465.5z"/>
	<path class="st1" d="M106.3,456.3v4.1h-9.3v5.3h7.1v3.9h-7.1v5.4h9.3v4.1H91.6v-22.7L106.3,456.3L106.3,456.3z"/>
	<path class="st1" d="M135.1,456.3v4.2h-6.4V479h-5.3v-18.6H117v-4.2L135.1,456.3L135.1,456.3z"/>
</g>
<g id="_x37_mm6kX.tif">
	<g>
		<path class="st2" d="M76.2,344.8c-0.1,13.5-1.7,25.6-6.4,37.2c-2.6,6.4-6,12.3-11.2,17c-13.3,12.3-34.8,11.5-47.2-1.7
			C4.7,390,1.1,381.2-1.3,371.7c-3.6-14.4-3.8-28.9-1.7-43.4c0.7-4.4,1.9-5.2,6-3.1c10.6,5.4,21.8,7.8,33.6,7.6
			c10.7-0.1,21.1-2.2,30.7-7c0.9-0.5,1.9-0.9,2.9-1.3c2.5-0.9,3.7-0.3,4.2,2.3c0.5,2.9,0.9,5.8,1.2,8.7
			C75.9,339,76,342.5,76.2,344.8z M12.9,376.2c6,8.7,14.3,11.6,24,11.4c9-0.2,16.6-3.4,22.1-11.4C43.4,376.2,28.4,376.2,12.9,376.2z
			 M42,358.4c7.4,0,14.9,0,22.3,0c-1.1-4.9-6.2-8.6-11.4-8.5C47.9,349.9,42.9,353.8,42,358.4z M29.9,358.4c-1.6-5.4-6.7-9-12.2-8.6
			c-4.8,0.4-9.7,4.4-10.2,8.6C15,358.4,22.4,358.4,29.9,358.4z"/>
		<path class="st2" d="M216.8,450.2c1.9-2,3.7-4,5.6-6c1.5,3.1,1.4,3.8-1,6.1c-1.5,1.4-6.9,9.5-7.8,11.4c-0.7,1.5-1.4,3-2.4,4.3
			c-1.5,2.1-3.6,3.2-6.3,3.2c-3.4,0-5-2.3-3.7-5.5c0.6-1.4,1.4-2.8,2.3-3.9c2.1-2.4,4.4-4.6,6.6-6.9c0.5-0.5,0.9-1,1.2-1.6
			c-2.7,1.4-5.1,1.8-7.2-0.6c-4.3,2.5-5.4,2.4-7.5-0.6c-1.7,0.8-3.3,1.7-5,2.2c-1.9,0.5-3.5-0.4-4.7-2.2c-3.2,2-6.5,4.1-9.2-0.4
			c-1.8,0.9-3.4,1.9-5.2,2.5c-2,0.7-3.8-0.1-5-2c-1.4,0.6-2.7,1.3-4,1.7c-4,1.3-5.8,0-5.8-4.2c0-0.3,0-0.6-0.1-1
			c-4.8,0.8-5.4,0.3-7.4-5.7c-1,2.7-1.9,5.2-2.8,7.7c-0.3,0.7-0.4,1.6-0.9,2.2c-0.5,0.6-1.3,1.3-1.9,1.2c-0.6-0.1-1.6-0.9-1.7-1.5
			c-0.3-1.5-0.3-3.2-0.1-4.7c0.2-2.4,0.7-4.7,1-7.2c-2.7,0-5.4-0.1-8.1,0.1c-0.4,0-0.8,1-1,1.6c-0.9,3-1.4,6.1-2.7,8.9
			c-2.2,4.7-7.3,6.5-12.1,4.8c-1.9-0.7-2.6-1.7-2.1-3.2c0.6-1.8,1.9-1.9,3.5-1.4c0.1,0,0.1,0,0.2,0.1c4.7,1.4,5.5,1.1,7.1-3.6
			c0.7-1.9,1.1-3.8,1.6-5.7c0.1-0.4,0.1-0.8,0.2-1.3c-1.1-0.1-2.2-0.1-3.2-0.4c-0.6-0.2-1-0.9-1.4-1.4c0.5-0.4,0.9-1.1,1.4-1.1
			c4.2,0.1,5.1-2.6,5.3-6c0.1-1.4,0.4-2.9,0.6-4.3c0-0.2-0.1-0.4-0.2-0.8c-2.6,1.1-5.1,2.1-5.7,5.3c-0.4,1.9-2,1.4-3.2,1.4
			c-1.3,0-1.9-0.7-1.8-2.1c0.2-3.7,2.3-6.2,5.5-7.3c3.2-1.1,6.6-2,10-2.2c4.7-0.2,9.5,0.3,14.3,0.6c1.5,0.1,2.7,0.5,2.5,2.3
			c-0.2,2-1.7,1.7-3.1,1.7c-4.3-0.2-8.6-0.4-12.9-0.5c-1.3,0-1.9,0.5-2,1.8c-0.3,2.8-0.7,5.6-1.1,8.8c3,0,5.8,0,8.6,0
			c3.6,0,3.6,0,3.7,3.6c0,0.2,0.1,0.5,0.1,1.2c0.5-0.8,0.7-1.3,1.1-1.7c0.8-0.9,1.5-2,2.4-2.6c0.7-0.4,1.9-0.4,2.6,0
			c0.5,0.3,0.7,1.4,0.7,2.2c0,0.9-0.5,1.9-0.4,2.7c0.1,0.9,0.7,1.8,1.1,2.7c1.2-0.6,2.6-0.9,3.4-1.8c0.7-0.9,0.8-2.4,1-3.6
			c0.3-1.6,1.3-2.4,2.8-2.6c1.8-0.3,2.4,0.3,2,2c-0.4,1.9-1,3.8-1.5,5.8c-0.2,1-0.5,1.9-0.6,2.9c-0.1,1.1-0.8,2.5,0.9,3
			c1.2,0.3,3-1.5,3.2-2.9c0.6-4.9,3.1-8.3,7.9-9.7c1.3-0.4,1.4-1.1,1.5-2.1c0.3-4.1,1.1-8.2,3.2-11.8c0.9-1.5,2-3,3.4-4
			c2.1-1.6,4.6-0.7,5,1.9c0.3,2.6,0.4,5.5-0.4,8c-1.3,4.4-3.3,8.6-4.9,13c-0.6,1.5-0.9,3.2-1,4.8c0,1.9,0.9,2.3,2.6,1.5
			c1.5-0.7,2.5-1.7,2.9-3.5c0.9-3.4,2.8-6.3,6-8.1c1.6-0.9,3.3-1.6,4.9,0.1c0.2,0.2,0.6,0.3,0.9,0.3c2.3-0.2,2.5,1.1,2.2,2.9
			c-0.4,2.2-0.8,4.3-0.9,6.5c-0.1,0.8,0.5,1.7,0.8,2.5c1.3-0.4,2.2-1,2.5-2.6c0.4-2.7,1.2-5.3,2.1-7.8c0.3-0.8,1.2-1.5,2.1-2
			c0.5-0.3,1.6-0.1,2,0.2c0.4,0.4,0.4,1.3,0.3,2c-0.5,2.4-1.2,4.8-1.6,7.2c-0.2,1.2-0.7,3.2,1.1,3.4c0.7,0.1,2.1-1.6,2.5-2.7
			c0.8-2.2,1.1-4.7,1.8-6.9c0.4-1.1,1.3-2.2,2.2-2.8c1.8-1,2.8-0.1,2.4,1.9c-0.6,3.4-1.2,6.8-1.8,10.2c-0.1,0.6-0.2,1.2-0.2,1.7
			C216.4,450,216.6,450.1,216.8,450.2z M176.1,438.6c-2.9,1.7-4.3,3.9-4.8,6.7c-0.2,1.1-0.5,2.6,1,2.8c0.8,0.1,2.1-0.6,2.7-1.3
			C177,444.5,175.8,441.7,176.1,438.6z M196.7,438.4c-3.3,0.9-5.6,4.4-5.6,7.7c0,0.8,0.6,1.6,0.9,2.4c0.8-0.5,1.9-0.9,2.2-1.6
			C195.2,444.3,195.9,441.5,196.7,438.4z M180.6,437.2c2.1-4.9,4.5-9.8,3.3-15.3C180.6,426.4,181,431.9,180.6,437.2z M210.4,457.9
			c-0.2-0.2-0.4-0.3-0.7-0.5c-1.5,1.9-3.1,3.8-4.5,5.8c-0.4,0.5-0.2,1.4-0.2,2.1c0.7-0.2,1.6-0.3,2.1-0.8
			C209,462.8,209.8,460.4,210.4,457.9z"/>
		<path class="st2" d="M-39.2,439.8c-0.6,0.7-1.3,1.4-1.7,2.2c-1.6,2.7-3.1,5.4-4.6,8.1c-1.6,2.9-3,3-4.9,0.4
			c-1.3,0.5-2.5,1.2-3.8,1.6c-2.1,0.6-3.3,0-3.6-2.2c-0.4-2.4-0.3-4.8-0.4-7.5c-0.7,1.2-1.3,2.5-1.9,3.7c-0.7,1.4-1.4,2.7-2.1,4.1
			c-1.4,2.7-2.9,2.8-4.6,0.5c-1.5,0.5-3,1.5-4.4,1.5c-1.3-0.1-2.5-1.3-3.9-2.1c-4.7,3-6.1,3.1-9.2,0c-1.2,0.6-2.4,1.3-3.7,1.8
			c-2.6,1-4.3,0.1-5.3-2.5c-0.8-2.2-0.4-4.3,0.4-6.4c0.3-0.7,0.6-1.5,0.7-2.3c-2.6,2.6-4.5,5.6-6.1,8.8c-0.6,1.1-0.7,3.1-2.6,2.7
			c-1.9-0.4-1.5-2.3-1.5-3.7c-0.1-7.6,0.4-15.1,2.4-22.7c-3.7-0.4-7.3-0.8-11.1-1.2c-0.4,1.7-0.6,3.2-1,4.6
			c-1.8,7.1-3.7,14.1-5.6,21.1c-0.2,0.7-0.5,1.7-1.1,2.1c-0.8,0.5-2,0.9-2.8,0.7c-0.6-0.2-1.3-1.6-1.2-2.3c0.5-2.7,1.1-5.5,1.9-8.1
			c1.7-5.2,3.5-10.4,5.3-15.6c0.2-0.7,0.4-1.4,0.8-2.7c-2.5,0.6-4.7,1-6.6,1.7c-0.7,0.2-1.2,1.3-1.5,2.1c-0.6,1.8-1.9,2.6-3.8,2.2
			c-1.7-0.4-2.4-1.5-2.1-3.5c0.3-2.1,1.6-3.7,3.5-4.2c3-0.9,6.2-1.7,9.3-1.8c5.3-0.1,10.7,0.3,16.1,0.7c1.1,0.1,1.7-0.1,2.3-1
			c1.3-2,3-3.4,5.5-3.3c2.1,0,3.3,0.9,3.2,3c-0.1,2.5-0.4,5.1-1.3,7.4c-1.6,4.2-3.6,8.3-5.5,12.4c1.2-1.3,2.3-2.6,3.6-3.7
			c1.2-1.1,2.6-2.7,4.3-1.6c1.7,1.1,0.8,3,0.4,4.6c-0.5,2.2-1.3,4.3-1.6,6.5c-0.3,1.8,0.6,2.3,2.1,1.3c1-0.7,2-1.8,2.4-2.9
			c1.2-3.4,2.8-6.3,5.8-8.3c1.7-1.1,3.5-2,5.4-0.1c0.2,0.2,0.5,0.3,0.7,0.3c2.6-0.3,2.6,1.4,2.3,3.2c-0.4,2.3-0.7,4.6-1,6.9
			c-0.1,0.6,0.3,1.2,0.5,1.8c0.6-0.2,1.3-0.3,1.8-0.7c1.5-1,2.5-2.2,2.6-4.2c0.1-2.1,0.6-4.2,1.1-6.3c0.3-1.4,1.1-2.3,2.7-2.1
			c1.6,0.2,1.6,1.5,1.5,2.8c-0.1,1.4-0.4,2.7-0.2,4.2c0.5-1,1.1-1.9,1.6-2.9c0.6-1,1-2.3,1.9-3c0.8-0.7,2.2-1.1,3.1-0.9
			c0.6,0.1,1.2,1.6,1.3,2.5c0.1,1.1-0.3,2.3-0.5,3.5c-0.2,1.3-0.6,2.6-0.5,3.9c0.1,1,0.4,2.4,1.2,2.9c0.7,0.5,3-1.7,3.1-3
			c0.6-5.2,1-10.4,2-15.6c0.6-3,2.1-6,3.5-8.8c0.9-1.8,2.6-3,4.8-3c1.8-0.1,3.1,0.7,3.2,2.6c0.1,1.7,0.2,3.5-0.3,5.1
			c-1.6,4.5-3.5,9-5.4,13.4c-0.2,0.4-0.4,0.8-0.6,1.2c0,0,0.1,0.1,0.2,0.3c0.7-0.9,1.4-1.7,2.1-2.6c0.5-0.6,0.9-1.1,1.5-1.6
			c1.6-1.4,4-1.7,5.1-0.6c1.2,1.1,1.4,3.3,0.2,5.1c-0.8,1.3-1.8,2.4-2.7,3.7c-0.4,0.6-0.9,1.2-1,1.9c-0.1,0.7,0.1,1.4,0.2,2.2
			c0.7-0.1,1.5-0.1,2-0.5c1.3-1,2.5-2.1,3.7-3.2c1.8,3.1,1.4,4.9-2.1,6.6c-1.6,0.7-3.4,1.1-5.2,1.1c-2.4,0-3.9-1.6-3.3-3.9
			c0.5-2.2,1.9-4.2,3-6.3c0.3-0.6,0.7-1.1,1-1.6C-38.7,440.1-39,440-39.2,439.8z M-74.7,438.5c-3,0.6-5.4,3.9-5.5,7.3
			c0,0.9,0.6,1.8,1,2.8c0.8-0.6,2-1,2.3-1.8C-76,444.1-75.5,441.4-74.7,438.5z M-98.2,437.4c3.3-5.4,5.9-13.6,5.2-16.1
			C-95.8,423-98.2,432-98.2,437.4z M-45.5,437.6c1.8-5.2,3.5-10.3,5.3-15.5c-0.4-0.1-0.7-0.2-1.1-0.3C-45,426.3-45.1,432-45.5,437.6
			z"/>
		<path class="st2" d="M30.9,449.4c-1.2,0.8-2.3,1.6-3.4,2.2c-3.6,1.7-6.6,0.3-7.3-3.6c-0.2-1.3-0.3-2.9,0.2-4.1
			c0.7-1.9,0.2-3-1.4-3.8c-0.5-0.3-1-0.7-1.3-0.9c0,1.9,0.2,3.8,0,5.7c-0.3,2.6-1.5,4.8-3.7,6.3c-3.3,2.3-7.4,1.1-8.8-2.7
			c-1-2.7-1-5.5-0.1-8.2c1.8-5,7.2-7,12.3-4.6c1.8,0.9,3.4,2.3,4.8,3.2c2.2-1.1,4.4-2.1,6.4-3.2c0.5-0.3,0.6-1.2,0.8-1.8
			c0.9-3.5,1.4-7.1,2.6-10.5c0.7-1.9,2.1-3.7,3.6-5.1c2.3-2.1,5.1-1.1,5.4,2c0.2,2.8,0.1,5.9-0.7,8.6c-1.2,4.1-3.2,8-4.6,12
			c-0.6,1.6-0.9,3.3-0.9,5c-0.1,1.7,0.9,2.1,2.3,1.4c1.4-0.8,2.8-1.7,4.2-2.6c0.9,4.5,1.7,3.9-3.7,6.8
			C34.8,453,33.2,452.4,30.9,449.4z M14.5,442.5c-0.3-1.3-0.4-2.2-0.7-2.9c-0.6-1.4-1.7-1.6-2.9-0.6c-1.8,1.5-2.9,5.8-1.9,7.9
			c0.3,0.7,1.1,1.5,1.8,1.6c0.6,0.1,1.7-0.5,2-1.1C13.5,445.7,14,443.9,14.5,442.5z M29.8,439.2c-0.3-0.1-0.6-0.2-0.9-0.3
			c-2.3,1.4-3.6,3.5-4.2,6.1c-0.3,1.2-0.6,2.5,0.9,3.1c1.5,0.7,2.6-0.4,3-1.6C29.2,444.2,29.4,441.6,29.8,439.2z M37.8,421.6
			c-2.6,1.4-4.6,10.7-3.6,15.8C36.2,432.1,38.4,427.4,37.8,421.6z"/>
		<path class="st2" d="M67.2,435.5c-1.8-0.3-3.3-0.6-4.9-0.9c-1.2,4.8-2.3,9.6-3.5,14.6c0.8,0.2,1.5,0.2,2.1,0.5
			c0.8,0.5,1.5,1.2,2.2,1.8c-0.8,0.5-1.7,1.2-2.6,1.3c-2,0.2-4,0.1-6,0.1c-2.5,0-5,0-7.5,0c0.5-2.9,2.6-3.1,4.6-3.6
			c0.6-0.2,1.6-0.6,1.7-1.1c2-7.5,3.8-15,5.7-22.9c-1.7,0.5-3.3,0.9-4.9,1.3c-0.8-2.4-0.5-3.4,1.6-4.3c3.9-1.8,8-1.9,12.1-1.1
			c0.6,0.1,1.5,1.2,1.4,1.7c-0.1,0.7-1,1.9-1.5,1.9c-3.9-0.4-4,2.4-4.5,4.9c-0.2,0.9-0.4,1.8-0.6,2.8c1.5,0,2.9,0.1,4.2-0.1
			c0.5-0.1,1-0.9,1.2-1.4c1-2.6,1.8-5.4,3-8c1.3-2.8,3.1-3.7,4.9-3.2c1.8,0.6,3.1,3.3,2.5,5.9c-0.5,2.4-1.6,4.7-2.5,7.2
			c1.2,0.1,2.6,0.1,3.9,0.4c0.6,0.1,1.1,0.8,1.6,1.2c-0.6,0.5-1.1,1.4-1.7,1.4c-1.5,0.2-3,0.1-4.6,0.1c-2,0-3.7,1.4-3.9,3.4
			c-0.2,2-0.2,4-0.1,6c0.1,2.3,1.7,3.3,3.9,2.3c2.2-1,4.2-2.4,6.2-3.6c0.7,3.9,0.6,4-2.7,5.8c-1.2,0.6-2.3,1.3-3.6,1.8
			c-3.2,1.3-5.8,0.5-6.8-2.9c-0.9-3.1-1-6.5-1.4-9.8C66.9,437.9,67.1,436.8,67.2,435.5z M71.4,432.6c2.7-1.2,4.8-7.1,3.3-8.9
			C72.5,426.2,72.3,429.3,71.4,432.6z"/>
		<path class="st2" d="M-1.9,452.7c-3.1,2-6.2,3-9.7,3c-5.5,0-9.6-3.1-10.9-8.5C-25,437-18,424.5-8,421.5c1.3-0.4,2.7-0.6,4.1-0.7
			c5.4-0.2,8.8,4.8,6.8,9.8c-0.5,1.3-1.3,2.8-3,2.2c-1.7-0.5-1.5-2.1-1.1-3.5c0.4-1.5,0.6-3-0.7-4.3c-1.3-1.2-2.8-0.8-4.1-0.3
			c-4.7,1.6-7.6,5.1-9.6,9.5c-1.5,3.4-2.1,7-1.8,10.7c0.3,3.9,2.6,6,6.5,6.1c3.1,0.1,5.9-0.7,8.6-2.1c1.3-0.7,1.8-1.7,1.4-2.9
			c-0.2-0.6-1.3-1-2.1-1.2c-1.2-0.3-2.4-0.7-2.3-2.2c0.1-1.5,1.3-1.8,2.6-1.9c4.3-0.4,6.3,1.4,6.2,5.7c0,5.1-0.7,10.1-3.4,14.5
			c-2.6,4.4-7.4,6.1-12,4.4c-2.1-0.8-2.8-2.2-1.6-3.8c0.5-0.6,1.5-0.7,2.3-1c0.2-0.1,0.5,0.1,0.8,0.2c4.3,1.4,5.2,1,7.1-3.2
			C-2.9,455.8-2.4,454.3-1.9,452.7z"/>
		<path class="st2" d="M109.3,444.3c0.5,4.1,0.5,4.4-3.1,5.8c-2.5,1-5.3,1.8-8,2.2c-2.5,0.4-5.1,0.1-6.2-2.9
			c-0.1-0.3-0.6-0.4-0.9-0.5c-1.6-0.4-1.9-1.3-0.9-2.7c0.1-0.1,0.2-0.2,0.3-0.3c2.9-3.2,5.7-6.4,8.6-9.6c1-1.2,2.2-1.9,3.8-1.5
			c1.3,0.3,2.1,1.5,1.2,2.3c-2.8,2.6-1.6,5.4-1,8.2c0.1,0.5,0.1,1,0.2,2C105.4,446.3,107.3,445.3,109.3,444.3z M94.3,447.7
			c0.9,1,1.9,2.2,3.6,1.2c1.3-0.8,1.5-2.9,0.3-5.5C97,444.8,95.7,446.2,94.3,447.7z"/>
		<path class="st2" d="M85.3,418.5c1.8,0,2.7,1.1,2.2,2.9c-0.7,2.6-1.5,5.1-2.3,7.6c-0.4,1.2-1.2,2.2-2.5,1.6
			c-0.6-0.3-1.1-1.6-1.1-2.4c0-2.3,0.3-4.6,0.5-6.9C82.3,419.4,83.3,418.5,85.3,418.5z"/>
		<path class="st2" d="M164.7,426.6c2.1,0,3.2,0.9,3.2,2.7c0,1.9-1.4,3.2-3.5,3.3c-2,0-3.2-0.9-3.2-2.7
			C161.2,427.9,162.6,426.6,164.7,426.6z"/>
	</g>
</g>
</svg>
